<svg width="18" height="19" viewBox="0 0 18 19" fill="none" xmlns="http://www.w3.org/2000/svg">
<g id="ic:round-whatsapp">
<path id="Vector" d="M14.2876 4.18254C13.6 3.48799 12.781 2.9373 11.8783 2.56258C10.9757 2.18787 10.0074 1.99664 9.0301 2.00004C4.9351 2.00004 1.5976 5.33754 1.5976 9.43254C1.5976 10.745 1.9426 12.02 2.5876 13.145L1.5376 17L5.4751 15.965C6.5626 16.5575 7.7851 16.8725 9.0301 16.8725C13.1251 16.8725 16.4626 13.535 16.4626 9.44004C16.4626 7.45254 15.6901 5.58504 14.2876 4.18254ZM9.0301 15.6125C7.9201 15.6125 6.8326 15.3125 5.8801 14.75L5.6551 14.615L3.3151 15.23L3.9376 12.95L3.7876 12.7175C3.17091 11.7328 2.84345 10.5945 2.8426 9.43254C2.8426 6.02754 5.6176 3.25254 9.0226 3.25254C10.6726 3.25254 12.2251 3.89754 13.3876 5.06754C13.9632 5.64052 14.4194 6.32204 14.7296 7.07261C15.0399 7.82319 15.1981 8.62788 15.1951 9.44004C15.2101 12.845 12.4351 15.6125 9.0301 15.6125ZM12.4201 10.9925C12.2326 10.9025 11.3176 10.4525 11.1526 10.385C10.9801 10.325 10.8601 10.295 10.7326 10.475C10.6051 10.6625 10.2526 11.0825 10.1476 11.2025C10.0426 11.33 9.9301 11.345 9.7426 11.2475C9.5551 11.1575 8.9551 10.955 8.2501 10.325C7.6951 9.83004 7.3276 9.22254 7.2151 9.03504C7.1101 8.84754 7.2001 8.75004 7.2976 8.65254C7.3801 8.57004 7.4851 8.43504 7.5751 8.33004C7.6651 8.22504 7.7026 8.14254 7.7626 8.02254C7.8226 7.89504 7.7926 7.79004 7.7476 7.70005C7.7026 7.61004 7.3276 6.69504 7.1776 6.32004C7.0276 5.96004 6.8701 6.00504 6.7576 5.99754H6.3976C6.2701 5.99754 6.0751 6.04254 5.9026 6.23004C5.7376 6.41754 5.2576 6.86754 5.2576 7.78254C5.2576 8.69754 5.9251 9.58254 6.0151 9.70254C6.1051 9.83004 7.3276 11.705 9.1876 12.5075C9.6301 12.7025 9.9751 12.815 10.2451 12.8975C10.6876 13.04 11.0926 13.0175 11.4151 12.9725C11.7751 12.92 12.5176 12.5225 12.6676 12.0875C12.8251 11.6525 12.8251 11.285 12.7726 11.2025C12.7201 11.12 12.6076 11.0825 12.4201 10.9925Z" fill="#096D00"/>
</g>
</svg>
